<?xml version="1.0" encoding="utf-8"?>
<!-- Generator: Adobe Illustrator 25.3.1, SVG Export Plug-In . SVG Version: 6.00 Build 0)  -->
<svg version="1.1" id="Camada_1" xmlns="http://www.w3.org/2000/svg" xmlns:xlink="http://www.w3.org/1999/xlink" x="0px" y="0px"
	 viewBox="0 0 639 151" style="enable-background:new 0 0 639 151;" xml:space="preserve">
<style type="text/css">
	.st0{fill:#680F0F;}
	.st1{fill:#D01F1F;}
	.st2{fill:none;stroke:#D01F1F;stroke-width:15;stroke-linecap:round;stroke-miterlimit:10;}
</style>
<g>
	<path class="st0" d="M291.3,24.46c-2.49,3.11-5.6,4.69-9.24,4.69h-0.13c-3.03,0-5.55-1.09-7.5-3.25s-2.93-4.93-2.93-8.34v-0.59
		c0-3.43,0.95-6.26,2.83-8.4c1.87-2.15,4.32-3.2,7.33-3.2h0.13c3.75,0.02,6.91,1.56,9.38,4.58l0.11,0.13l2.44-2.55l-0.08-0.1
		c-1.4-1.71-3.17-3.08-5.17-4.01c-2.04-0.94-4.25-1.42-6.5-1.42h-0.32c-4.17,0-7.56,1.39-10.07,4.13
		c-2.51,2.74-3.79,6.43-3.79,10.91v0.41c0,4.56,1.33,8.25,3.95,10.96c2.62,2.71,6.14,4.11,10.49,4.11c4.66-0.02,8.55-1.9,11.54-5.57
		l0.08-0.1l-2.45-2.53L291.3,24.46z"/>
	<path class="st0" d="M307.15,8.24h-0.04c-2.86-0.02-5.54,1.41-7.12,3.8V8.78h-3.73v23.2h3.72V20.7c0-2.78,0.66-5.02,1.97-6.66
		s3.15-2.43,5.47-2.43h0.67V8.29h-0.14C307.7,8.26,307.42,8.24,307.15,8.24z"/>
	<path class="st0" d="M319.71,8.24h-0.26c-3.36,0-6.1,1.14-8.15,3.39s-3.09,5.14-3.09,8.6v0.33c0,3.46,1.04,6.36,3.09,8.6
		c2.05,2.24,4.8,3.39,8.15,3.39h0.26c3.37,0,6.12-1.14,8.17-3.39s3.07-5.12,3.07-8.6v-0.33c0-3.48-1.04-6.37-3.07-8.6
		S323.08,8.24,319.71,8.24z M319.71,29.14h-0.26c-2.24,0-4.07-0.78-5.43-2.35c-1.36-1.56-2.09-3.68-2.09-6.33V20.3
		c0-2.68,0.69-4.75,2.09-6.35c1.37-1.54,3.19-2.33,5.43-2.33h0.26c2.23,0,4.06,0.78,5.45,2.33s2.07,3.71,2.07,6.35v0.16
		c0,2.64-0.7,4.77-2.07,6.33C323.78,28.35,321.94,29.14,319.71,29.14L319.71,29.14z"/>
	<path class="st0" d="M351.08,10.5c-1.48-1.51-3.6-2.27-6.32-2.27h-0.08c-2.99,0-5.7,1.33-7.33,3.57V8.78h-3.72v23.2h3.72V20.3
		c0-2.61,0.65-4.73,1.93-6.31c1.28-1.58,2.96-2.36,5.07-2.36h0.09c3.47,0,5.16,1.75,5.16,5.34v15.01h3.72V16.96
		C353.31,14.18,352.56,12.01,351.08,10.5z"/>
	<path class="st0" d="M366.49,8.24h-0.04c-1.85-0.01-3.68,0.35-5.39,1.07c-1.59,0.64-3.02,1.61-4.21,2.84l-0.1,0.1l2.29,2.43
		l0.11-0.11c0.9-0.89,1.96-1.6,3.13-2.09c1.2-0.55,2.5-0.85,3.83-0.86h0.19c1.92,0,3.35,0.46,4.26,1.36
		c0.83,0.82,1.25,2.05,1.25,3.63v0.91c-5.51,0-9.46,0.62-12.07,1.87c-2.68,1.27-3.98,3.22-3.98,5.95c0,2.13,0.75,3.88,2.22,5.19
		c1.47,1.31,3.4,1.99,5.76,1.99h0.08c1.7,0.02,3.38-0.4,4.88-1.22c1.24-0.67,2.31-1.62,3.1-2.79v3.46h3.72V17.11
		C375.54,11.31,372.41,8.24,366.49,8.24z M362.42,21.92c1.97-0.76,5.13-1.16,9.38-1.19c-0.05,2.38-0.8,4.4-2.24,6
		c-1.48,1.62-3.32,2.41-5.62,2.41h-0.04c-2.73,0-4.43-1.39-4.43-3.63C359.49,23.87,360.45,22.69,362.42,21.92z"/>
	<path class="st0" d="M390.6,8.24h-0.26c-1.64-0.01-3.26,0.36-4.74,1.07c-1.28,0.58-2.39,1.48-3.24,2.61V8.79h-3.71v32.77h3.72
		V28.85c0.85,1.12,1.96,2.01,3.25,2.58c1.48,0.73,3.1,1.1,4.74,1.09h0.26c3.16,0,5.77-1.14,7.74-3.39c1.97-2.25,2.94-5.12,2.94-8.6
		v-0.33c0-3.48-0.99-6.37-2.94-8.6C396.41,9.37,393.77,8.24,390.6,8.24z M397.56,20.3v0.16c0,2.64-0.7,4.77-2.07,6.33
		c-1.38,1.56-3.17,2.35-5.38,2.35h-0.26c-2.2,0-4-0.78-5.36-2.35c-1.36-1.56-2.09-3.68-2.09-6.33V20.3c0-2.63,0.7-4.77,2.07-6.35
		s3.18-2.33,5.39-2.33h0.26c2.21,0,4.02,0.78,5.38,2.33C396.86,15.5,397.56,17.66,397.56,20.3z"/>
	<path class="st0" d="M423.88,11.62c-1.97-2.24-4.57-3.39-7.74-3.39h-0.26c-1.64-0.01-3.26,0.36-4.74,1.07
		c-1.28,0.58-2.39,1.48-3.24,2.61V8.78h-3.71v32.77h3.72V28.85c0.84,1.12,1.96,2.01,3.23,2.58c1.48,0.73,3.1,1.1,4.75,1.09h0.26
		c3.16,0,5.77-1.14,7.74-3.39s2.94-5.12,2.94-8.6v-0.33C426.81,16.74,425.83,13.85,423.88,11.62z M423.09,20.3v0.16
		c0,2.64-0.7,4.77-2.09,6.33c-1.39,1.56-3.17,2.35-5.38,2.35h-0.26c-2.2,0-4-0.78-5.36-2.35c-1.36-1.56-2.09-3.68-2.09-6.33V20.3
		c0-2.63,0.7-4.77,2.09-6.35s3.18-2.33,5.38-2.33h0.26c2.21,0,4.02,0.78,5.38,2.33S423.09,17.66,423.09,20.3L423.09,20.3z"/>
</g>
<g>
	<path class="st1" d="M291.26,149.25h-20.25V52.18h55.64v16.86h-35.39v25.03h32.93v16.8h-32.93V149.25z"/>
	<path class="st1" d="M425.17,100.58c0,16.07-3.98,28.42-11.95,37.05c-7.97,8.63-19.39,12.95-34.26,12.95
		c-14.87,0-26.29-4.32-34.26-12.95c-7.97-8.63-11.95-21.02-11.95-37.18c0-16.16,3.99-28.49,11.98-37.01
		c7.99-8.52,19.44-12.78,34.36-12.78c14.92,0,26.32,4.29,34.22,12.88C421.22,72.12,425.17,84.47,425.17,100.58z M354.33,100.58
		c0,10.85,2.06,19.01,6.17,24.5s10.27,8.23,18.46,8.23c16.42,0,24.63-10.91,24.63-32.73c0-21.87-8.17-32.8-24.5-32.8
		c-8.19,0-14.36,2.76-18.52,8.27C356.41,81.56,354.33,89.74,354.33,100.58z"/>
	<path class="st1" d="M524.83,100.58c0,16.07-3.98,28.42-11.95,37.05c-7.97,8.63-19.39,12.95-34.26,12.95
		c-14.87,0-26.29-4.32-34.26-12.95c-7.97-8.63-11.95-21.02-11.95-37.18c0-16.16,3.99-28.49,11.98-37.01
		c7.99-8.52,19.44-12.78,34.36-12.78s26.33,4.29,34.23,12.88C520.88,72.12,524.83,84.47,524.83,100.58z M453.99,100.58
		c0,10.85,2.06,19.01,6.17,24.5s10.27,8.23,18.46,8.23c16.42,0,24.63-10.91,24.63-32.73c0-21.87-8.17-32.8-24.5-32.8
		c-8.19,0-14.36,2.76-18.52,8.27C456.07,81.56,453.99,89.74,453.99,100.58z"/>
	<path class="st1" d="M616.91,99.79c0,15.98-4.55,28.22-13.64,36.72c-9.1,8.5-22.23,12.75-39.4,12.75h-27.49V52.18h30.47
		c15.84,0,28.15,4.18,36.92,12.55S616.91,84.78,616.91,99.79z M595.54,100.32c0-20.85-9.21-31.27-27.62-31.27h-10.96v63.21h8.83
		C585.62,132.25,595.54,121.61,595.54,100.32z"/>
</g>
<line class="st2" x1="25.12" y1="141.14" x2="233.12" y2="141.14"/>
<path class="st2" d="M41.07,120.18c0-48.63,39.42-88.06,88.05-88.06s88.05,39.43,88.05,88.06"/>
<line class="st2" x1="117.76" y1="9.05" x2="140.48" y2="9.05"/>
</svg>
